<svg width="120" height="108" viewBox="0 0 120 108" fill="none" xmlns="http://www.w3.org/2000/svg">
<path d="M75.5398 4.61617C102.716 16.6628 115.016 48.5383 103.012 75.8123C91.0089 103.086 59.2479 115.43 32.072 103.384C4.89613 91.3372 -7.40371 59.4617 4.59958 32.1877C16.6029 4.91379 48.3639 -7.43041 75.5398 4.61617Z" fill="#FFDD55"/>
<path d="M83.881 25.0465L120 29.5817L98.5703 57.2418L83.881 25.0465Z" fill="#FFDD55"/>
<path d="M35.2884 68.5748L25.3268 55.2259H21.761V68.5748H18.2518V39.4912H21.761V52.1017H23.2892L34.8922 39.4912H39.0805L27.3644 52.2721L39.4767 68.5748H35.2884Z" fill="white"/>
<path d="M44.0118 68.5748V39.4912H53.8035C56.077 39.4912 57.9353 39.903 59.3786 40.7267C60.8313 41.5409 61.9067 42.6438 62.6048 44.0355C63.3029 45.4272 63.6519 46.9798 63.6519 48.6934C63.6519 50.407 63.3029 51.9644 62.6048 53.3656C61.9162 54.7667 60.8502 55.8839 59.4069 56.717C57.9636 57.5406 56.1147 57.9525 53.8601 57.9525H46.8418V54.8283H53.7469C55.3034 54.8283 56.5533 54.5584 57.4967 54.0188C58.44 53.4792 59.1239 52.7502 59.5484 51.8319C59.9824 50.9041 60.1993 49.8579 60.1993 48.6934C60.1993 47.529 59.9824 46.4875 59.5484 45.5692C59.1239 44.6509 58.4353 43.9314 57.4825 43.4107C56.5298 42.8805 55.2657 42.6154 53.6903 42.6154H47.521V68.5748H44.0118Z" fill="white"/>
<path d="M89.0015 68.5748H85.4923V42.6154H79.323C77.757 42.6154 76.4977 42.8568 75.5449 43.3397C74.5922 43.813 73.8988 44.4852 73.4649 45.3562C73.031 46.2272 72.814 47.2449 72.814 48.4094C72.814 49.5739 73.0262 50.5774 73.4507 51.42C73.8847 52.2531 74.5733 52.8969 75.5166 53.3514C76.4694 53.8058 77.7193 54.033 79.2664 54.033H87.0771V57.214H79.1532C76.908 57.214 75.0638 56.8401 73.6205 56.0921C72.1772 55.3348 71.1066 54.2934 70.4085 52.9679C69.7104 51.6425 69.3614 50.123 69.3614 48.4094C69.3614 46.6958 69.7104 45.1669 70.4085 43.8225C71.1066 42.4781 72.182 41.4225 73.6347 40.6557C75.0874 39.8794 76.9458 39.4912 79.2098 39.4912H89.0015V68.5748ZM75.361 55.5099H79.323L72.3046 68.5748H68.2294L75.361 55.5099Z" fill="white"/>
</svg>
