<svg width="178" height="40" viewBox="0 0 178 40" fill="none" xmlns="http://www.w3.org/2000/svg">
<path d="M28.6509 18.0313C29.5036 17.1375 30.0756 16.0134 30.2962 14.7981C30.5168 13.5827 30.3763 12.3293 29.8922 11.1929C29.408 10.0565 28.6014 9.08692 27.572 8.40408C26.5427 7.72124 25.3358 7.35507 24.1005 7.35087C22.8653 7.34666 21.6559 7.70459 20.622 8.3804C19.588 9.05622 18.7748 10.0203 18.2829 11.1533C17.791 12.2864 17.642 13.5388 17.8543 14.7557C18.0666 15.9725 18.631 17.1005 19.4775 18H13.8922C13.8922 18 9.69781 18.0313 3.90625 15.5897L7.32562 26.2272C8.07682 28.1189 9.37874 29.7414 11.0627 30.8846C12.7467 32.0279 14.7352 32.6391 16.7706 32.6391H28.0159C28.9772 32.6391 29.929 32.4497 30.8171 32.0819C31.7051 31.714 32.512 31.1749 33.1917 30.4952C33.8714 29.8155 34.4106 29.0086 34.7784 28.1205C35.1463 27.2324 35.3356 26.2806 35.3356 25.3194C35.3353 23.4885 34.6485 21.7243 33.411 20.375C32.1734 19.0257 30.475 18.1894 28.6509 18.0313Z" fill="#FFDD55"/>
<path d="M11.0713 19.9266C11.0713 19.9266 15.0863 22.3497 18.2063 21.1141C23.4919 19.0203 26.7397 21.9556 26.7397 25.5063C26.7397 28.6328 23.2504 30.4985 20.2682 30.2991C14.5182 29.9153 11.6916 25.4238 11.0713 19.9266Z" fill="#FFEA98"/>
<path d="M30.3334 12.7919C30.3334 12.7919 29.3959 16.4397 26.7422 17.9997C26.7422 17.9997 32.7447 18.6497 36.0938 14.0181L30.3334 12.7919Z" fill="#EAB308"/>
<path d="M25.6797 12.5222C26.0527 12.5222 26.355 12.2198 26.355 11.8469C26.355 11.4739 26.0527 11.1716 25.6797 11.1716C25.3067 11.1716 25.0044 11.4739 25.0044 11.8469C25.0044 12.2198 25.3067 12.5222 25.6797 12.5222Z" fill="#1E1E1E"/>
<path d="M28.0162 32.6391C28.9774 32.6391 29.9293 32.4498 30.8173 32.0819C31.7054 31.7141 32.5123 31.1749 33.192 30.4952C33.8717 29.8155 34.4109 29.0086 34.7787 28.1205C35.1466 27.2325 35.3359 26.2806 35.3359 25.3194C35.3355 23.4885 34.6488 21.7243 33.4112 20.375C32.1737 19.0257 30.4752 18.1895 28.6512 18.0313C29.3138 17.3469 29.8098 16.5191 30.1008 15.612C30.3917 14.705 30.4698 13.7431 30.329 12.801C30.2312 13 28.1306 17.1003 22.0315 18.0313C15.7815 18.9847 15.0996 27.125 25.4015 28.5235C35.7034 29.9219 28.0162 32.6391 28.0162 32.6391Z" fill="#FFC955"/>
<path d="M26.7394 25.5063C26.7394 21.9556 23.4916 19.02 18.206 21.1141C18.0325 21.182 17.8551 21.2395 17.6747 21.2863C16.7579 24.0428 18.8704 27.6363 25.4004 28.5231C25.8189 28.1393 26.1538 27.6732 26.3841 27.1542C26.6145 26.6351 26.7355 26.0741 26.7394 25.5063Z" fill="#FFDD55"/>
<path d="M48.3466 29.5H41.6435V10.5909H48.402C50.304 10.5909 51.9413 10.9695 53.3139 11.7266C54.6866 12.4775 55.7422 13.5578 56.4808 14.9673C57.2256 16.3769 57.598 18.0634 57.598 20.027C57.598 21.9967 57.2256 23.6894 56.4808 25.1051C55.7422 26.5208 54.6804 27.6072 53.2955 28.3643C51.9167 29.1214 50.267 29.5 48.3466 29.5ZM45.6413 26.0746H48.1804C49.3622 26.0746 50.3563 25.8653 51.1626 25.4467C51.9751 25.022 52.5845 24.3665 52.9908 23.4801C53.4032 22.5876 53.6094 21.4366 53.6094 20.027C53.6094 18.6297 53.4032 17.4879 52.9908 16.6016C52.5845 15.7152 51.9782 15.0627 51.1719 14.6442C50.3655 14.2256 49.3714 14.0163 48.1896 14.0163H45.6413V26.0746ZM68.8001 23.4616V15.3182H72.7333V29.5H68.957V26.924H68.8093C68.4892 27.755 67.9568 28.4228 67.212 28.9276C66.4734 29.4323 65.5716 29.6847 64.5068 29.6847C63.5588 29.6847 62.7248 29.4692 62.0046 29.0384C61.2845 28.6075 60.7212 27.995 60.315 27.201C59.9149 26.407 59.7118 25.456 59.7056 24.348V15.3182H63.6389V23.6463C63.645 24.4834 63.8697 25.1451 64.3129 25.6314C64.756 26.1177 65.35 26.3608 66.0948 26.3608C66.5688 26.3608 67.012 26.2531 67.4244 26.0376C67.8368 25.8161 68.1692 25.4898 68.4215 25.0589C68.68 24.6281 68.8062 24.0956 68.8001 23.4616ZM81.5071 29.777C80.0545 29.777 78.8049 29.4692 77.7585 28.8537C76.7183 28.232 75.9181 27.3703 75.358 26.2685C74.804 25.1667 74.527 23.8987 74.527 22.4645C74.527 21.0118 74.8071 19.7377 75.3672 18.642C75.9335 17.5402 76.7368 16.6816 77.777 16.0661C78.8172 15.4444 80.0545 15.1335 81.4886 15.1335C82.7259 15.1335 83.8092 15.3582 84.7386 15.8075C85.6681 16.2569 86.4037 16.8878 86.9453 17.7003C87.487 18.5128 87.7855 19.4669 87.8409 20.5625H84.1293C84.0246 19.8546 83.7476 19.2853 83.2983 18.8544C82.8551 18.4174 82.2735 18.1989 81.5533 18.1989C80.9439 18.1989 80.4115 18.3651 79.956 18.6974C79.5066 19.0237 79.1558 19.5007 78.9034 20.1286C78.6511 20.7564 78.5249 21.5166 78.5249 22.4091C78.5249 23.3139 78.648 24.0833 78.8942 24.7173C79.1466 25.3513 79.5005 25.8345 79.956 26.1669C80.4115 26.4993 80.9439 26.6655 81.5533 26.6655C82.0026 26.6655 82.4058 26.5732 82.7628 26.3885C83.126 26.2038 83.4245 25.9361 83.6584 25.5852C83.8985 25.2282 84.0554 24.8004 84.1293 24.3018H87.8409C87.7794 25.3852 87.4839 26.3393 86.9546 27.1641C86.4314 27.9827 85.7081 28.6229 84.7848 29.0845C83.8615 29.5462 82.769 29.777 81.5071 29.777ZM93.1431 25.419L93.1524 20.701H93.7248L98.2674 15.3182H102.782L96.6794 22.446H95.7468L93.1431 25.419ZM89.5792 29.5V10.5909H93.5125V29.5H89.5792ZM98.4428 29.5L94.2696 23.3232L96.8917 20.544L103.05 29.5H98.4428Z" fill="#EAB308"/>
<path d="M114.264 16.0291C114.19 15.2843 113.873 14.7057 113.313 14.2933C112.753 13.8809 111.992 13.6747 111.032 13.6747C110.38 13.6747 109.829 13.767 109.379 13.9517C108.93 14.1302 108.585 14.3795 108.345 14.6996C108.111 15.0196 107.995 15.3828 107.995 15.7891C107.982 16.1276 108.053 16.4231 108.207 16.6754C108.367 16.9278 108.585 17.1463 108.862 17.331C109.139 17.5095 109.459 17.6664 109.823 17.8018C110.186 17.9311 110.574 18.0419 110.986 18.1342L112.685 18.5405C113.51 18.7251 114.267 18.9714 114.956 19.2791C115.646 19.5869 116.243 19.9654 116.747 20.4148C117.252 20.8641 117.643 21.3935 117.92 22.0028C118.203 22.6122 118.348 23.3108 118.354 24.0987C118.348 25.2559 118.052 26.2592 117.468 27.1087C116.889 27.9519 116.052 28.6075 114.956 29.0753C113.867 29.5369 112.553 29.7678 111.014 29.7678C109.487 29.7678 108.158 29.5339 107.025 29.0661C105.899 28.5982 105.018 27.9058 104.384 26.9886C103.757 26.0653 103.427 24.9235 103.397 23.5632H107.265C107.308 24.1972 107.49 24.7266 107.81 25.1513C108.136 25.5698 108.57 25.8868 109.112 26.1023C109.66 26.3116 110.278 26.4162 110.968 26.4162C111.645 26.4162 112.232 26.3177 112.731 26.1207C113.236 25.9238 113.627 25.6499 113.904 25.299C114.181 24.9482 114.319 24.545 114.319 24.0895C114.319 23.6648 114.193 23.3078 113.941 23.0185C113.694 22.7292 113.331 22.483 112.851 22.2798C112.377 22.0767 111.795 21.892 111.106 21.7259L109.047 21.2088C107.453 20.821 106.194 20.2147 105.271 19.3899C104.348 18.5651 103.889 17.4541 103.895 16.0568C103.889 14.9119 104.194 13.9117 104.809 13.0561C105.431 12.2005 106.283 11.5327 107.367 11.0526C108.45 10.5724 109.681 10.3324 111.06 10.3324C112.463 10.3324 113.688 10.5724 114.735 11.0526C115.787 11.5327 116.606 12.2005 117.191 13.0561C117.775 13.9117 118.077 14.9027 118.095 16.0291H114.264ZM124.122 21.3011V29.5H120.189V10.5909H124.012V17.8203H124.178C124.498 16.9832 125.015 16.3277 125.729 15.8537C126.443 15.3736 127.339 15.1335 128.416 15.1335C129.401 15.1335 130.259 15.349 130.992 15.7798C131.73 16.2045 132.303 16.817 132.709 17.6172C133.121 18.4112 133.325 19.3622 133.318 20.4702V29.5H129.385V21.1719C129.391 20.2978 129.17 19.6177 128.72 19.1314C128.277 18.6451 127.656 18.402 126.855 18.402C126.32 18.402 125.846 18.5159 125.433 18.7436C125.027 18.9714 124.707 19.3037 124.473 19.7408C124.245 20.1716 124.129 20.6918 124.122 21.3011ZM142.041 29.777C140.607 29.777 139.367 29.4723 138.321 28.8629C137.28 28.2474 136.477 27.3918 135.911 26.2962C135.344 25.1944 135.061 23.9171 135.061 22.4645C135.061 20.9995 135.344 19.7192 135.911 18.6236C136.477 17.5218 137.28 16.6662 138.321 16.0568C139.367 15.4413 140.607 15.1335 142.041 15.1335C143.476 15.1335 144.713 15.4413 145.753 16.0568C146.799 16.6662 147.606 17.5218 148.172 18.6236C148.738 19.7192 149.022 20.9995 149.022 22.4645C149.022 23.9171 148.738 25.1944 148.172 26.2962C147.606 27.3918 146.799 28.2474 145.753 28.8629C144.713 29.4723 143.476 29.777 142.041 29.777ZM142.06 26.7301C142.712 26.7301 143.257 26.5455 143.694 26.1761C144.131 25.8007 144.46 25.2898 144.682 24.6435C144.91 23.9972 145.024 23.2616 145.024 22.4368C145.024 21.612 144.91 20.8764 144.682 20.2301C144.46 19.5838 144.131 19.0729 143.694 18.6974C143.257 18.322 142.712 18.1342 142.06 18.1342C141.401 18.1342 140.847 18.322 140.398 18.6974C139.955 19.0729 139.619 19.5838 139.392 20.2301C139.17 20.8764 139.059 21.612 139.059 22.4368C139.059 23.2616 139.17 23.9972 139.392 24.6435C139.619 25.2898 139.955 25.8007 140.398 26.1761C140.847 26.5455 141.401 26.7301 142.06 26.7301ZM150.799 34.8182V15.3182H154.677V17.7003H154.852C155.025 17.3187 155.274 16.9309 155.6 16.5369C155.933 16.1368 156.363 15.8045 156.893 15.5398C157.428 15.2689 158.093 15.1335 158.887 15.1335C159.921 15.1335 160.875 15.4044 161.749 15.946C162.623 16.4815 163.322 17.291 163.845 18.3743C164.368 19.4515 164.63 20.8026 164.63 22.4276C164.63 24.0095 164.375 25.3452 163.864 26.4347C163.359 27.518 162.67 28.3397 161.796 28.8999C160.928 29.4538 159.955 29.7308 158.878 29.7308C158.115 29.7308 157.465 29.6046 156.93 29.3523C156.4 29.0999 155.966 28.7829 155.628 28.4013C155.289 28.0135 155.031 27.6226 154.852 27.2287H154.732V34.8182H150.799ZM154.649 22.4091C154.649 23.2524 154.766 23.9879 155 24.6158C155.234 25.2436 155.572 25.733 156.016 26.0838C156.459 26.4285 156.997 26.6009 157.631 26.6009C158.272 26.6009 158.813 26.4254 159.256 26.0746C159.7 25.7176 160.035 25.2251 160.263 24.5973C160.497 23.9633 160.614 23.2339 160.614 22.4091C160.614 21.5904 160.5 20.8703 160.272 20.2486C160.044 19.6269 159.709 19.1406 159.266 18.7898C158.822 18.4389 158.278 18.2635 157.631 18.2635C156.991 18.2635 156.45 18.4328 156.006 18.7713C155.569 19.1098 155.234 19.59 155 20.2116C154.766 20.8333 154.649 21.5658 154.649 22.4091Z" fill="#2581EB"/>
</svg>
