<svg width="42" height="42" viewBox="0 0 42 42" fill="none" xmlns="http://www.w3.org/2000/svg">
<g filter="url(#filter0_d_3_7356)">
<path d="M2 9C2 4.58172 5.58172 1 10 1H32C36.4183 1 40 4.58172 40 9V31C40 35.4183 36.4183 39 32 39H10C5.58172 39 2 35.4183 2 31V9Z" fill="white"/>
<path d="M10 1.5H32C36.1421 1.5 39.5 4.85786 39.5 9V31C39.5 35.1421 36.1421 38.5 32 38.5H10C5.85786 38.5 2.5 35.1421 2.5 31V9C2.5 4.85786 5.85786 1.5 10 1.5Z" stroke="#FFDD55"/>
<path d="M15 16H27" stroke="#1F2937" stroke-linecap="round" stroke-linejoin="round"/>
<path d="M15 20H27" stroke="#1F2937" stroke-linecap="round" stroke-linejoin="round"/>
<path d="M15 24H27" stroke="#1F2937" stroke-linecap="round" stroke-linejoin="round"/>
</g>
<defs>
<filter id="filter0_d_3_7356" x="0" y="0" width="42" height="42" filterUnits="userSpaceOnUse" color-interpolation-filters="sRGB">
<feFlood flood-opacity="0" result="BackgroundImageFix"/>
<feColorMatrix in="SourceAlpha" type="matrix" values="0 0 0 0 0 0 0 0 0 0 0 0 0 0 0 0 0 0 127 0" result="hardAlpha"/>
<feOffset dy="1"/>
<feGaussianBlur stdDeviation="1"/>
<feComposite in2="hardAlpha" operator="out"/>
<feColorMatrix type="matrix" values="0 0 0 0 0 0 0 0 0 0 0 0 0 0 0 0 0 0 0.05 0"/>
<feBlend mode="normal" in2="BackgroundImageFix" result="effect1_dropShadow_3_7356"/>
<feBlend mode="normal" in="SourceGraphic" in2="effect1_dropShadow_3_7356" result="shape"/>
</filter>
</defs>
</svg>
